<svg width="222" height="235" viewBox="0 0 222 235" fill="none" xmlns="http://www.w3.org/2000/svg">
<path d="M126.619 5.75994C130.566 8.60606 132.97 12.304 133.802 17.1246C134.02 18.8485 134.015 20.5746 134.006 22.3097C134.005 22.5109 134.005 22.712 134.005 22.9192C133.971 31.9191 132.763 40.8734 131.058 49.6975C131.016 49.9157 130.974 50.1339 130.931 50.3587C129.959 55.3584 128.756 60.2952 127.52 65.2351C127.016 67.248 126.515 69.2616 126.019 71.2763C125.966 71.4907 125.913 71.7051 125.859 71.9261C123.859 79.4588 123.859 79.4588 123.101 87.1638C123.103 87.4794 123.103 87.4794 123.104 87.8014C123.106 88.0126 123.109 88.2238 123.111 88.4413C123.113 88.7712 123.113 88.7712 123.115 89.1078C123.118 89.6427 123.123 90.1776 123.129 90.7125C126.176 90.2655 128.495 87.7746 130.633 85.7322C131.124 85.2758 131.629 84.839 132.138 84.4017C133.278 83.4063 134.358 82.3634 135.427 81.2916C135.614 81.1045 135.801 80.9173 135.994 80.7245C136.387 80.3319 136.78 79.939 137.172 79.5457C137.766 78.9498 138.362 78.3554 138.958 77.7611C139.342 77.3766 139.727 76.992 140.111 76.6072C140.374 76.3454 140.374 76.3454 140.642 76.0783C141.5 75.2157 142.326 74.3392 143.121 73.4178C144.209 72.1592 145.372 70.9838 146.55 69.8091C146.775 69.5839 147 69.3586 147.231 69.1266C147.704 68.6536 148.177 68.181 148.651 67.7087C149.37 66.9909 150.088 66.2717 150.805 65.5522C151.268 65.0902 151.73 64.6283 152.192 64.1665C152.404 63.9541 152.616 63.7418 152.834 63.5229C153.988 62.3737 155.166 61.2714 156.406 60.2141C156.929 59.7535 157.419 59.2711 157.907 58.7735C158.743 57.924 159.619 57.1401 160.522 56.3625C161.153 55.8086 161.771 55.2415 162.387 54.6701C163.833 53.3291 165.305 52.0405 166.844 50.8054C167.478 50.2946 168.104 49.7785 168.727 49.255C174.477 44.4514 181.919 38.7265 189.846 39.3262C193.427 39.8841 196.208 41.2181 198.931 43.5847C199.237 43.8498 199.237 43.8498 199.549 44.1203C201.412 45.858 202.758 47.8928 204.157 50.003C205.001 51.2715 205.862 52.5287 206.72 53.7874C206.901 54.0524 207.081 54.3173 207.267 54.5902C208.406 56.2619 209.561 57.9216 210.731 59.572C210.87 59.7697 211.01 59.9675 211.153 60.1713C211.711 60.9618 212.271 61.7497 212.843 62.5297C214.672 65.0899 214.852 67.8418 214.414 70.9103C213.346 76.4667 210.896 81.6292 207.164 85.8862C206.983 86.1116 206.801 86.3371 206.614 86.5693C195.543 99.8204 172.644 104.474 157.003 109.581C156.31 109.807 155.617 110.034 154.923 110.26C152.885 110.926 150.847 111.591 148.806 112.25C147.963 112.523 147.121 112.798 146.279 113.072C145.884 113.201 145.488 113.328 145.093 113.455C144.552 113.629 144.011 113.805 143.471 113.982C143.166 114.081 142.862 114.179 142.548 114.28C141.823 114.491 141.823 114.491 141.583 115.128C141.932 115.24 142.282 115.352 142.642 115.468C144.333 116.032 145.979 116.701 147.633 117.364C160.731 122.542 174.115 126.878 187.71 130.549C211.117 136.885 211.117 136.885 216.927 146.839C220.464 153.026 222.714 159.429 220.791 166.515C217.738 176.433 210.623 186.144 201.486 191.214C196.624 193.669 191.709 194.611 186.439 192.917C180.547 190.798 174.683 187.819 169.593 184.17C169.113 183.826 168.627 183.491 168.141 183.156C164.707 180.775 161.458 178.136 158.38 175.311C157.788 174.769 157.185 174.243 156.576 173.719C155.677 172.937 154.838 172.112 154.004 171.261C153.52 170.786 153.016 170.355 152.495 169.921C151.136 168.754 149.943 167.433 148.733 166.115C147.755 165.05 146.759 164.012 145.727 162.999C144.867 162.13 144.08 161.197 143.286 160.269C143.035 159.976 142.784 159.683 142.533 159.39C142.105 158.891 141.677 158.392 141.25 157.892C140.177 156.639 139.098 155.392 138.016 154.147C135.911 151.721 133.82 149.286 131.806 146.783C128.22 141.981 128.22 141.981 123.413 138.976C123.757 141.787 124.294 144.487 125.01 147.227C125.063 147.432 125.116 147.638 125.17 147.849C126.246 152.005 127.485 156.11 128.736 160.215C142.621 205.793 142.621 205.793 135.425 220.066C130.557 228.533 118.79 231.443 110.051 233.865C102.712 235.787 94.8704 234.327 88.3342 230.548C82.0389 226.559 78.5555 220.532 76.8638 213.386C72.6447 193.826 81.8717 172.907 88.651 154.936C89.8998 151.623 91.1279 148.304 92.3121 144.968C92.4721 144.518 92.6329 144.068 92.7946 143.618C93.6453 141.248 94.4109 138.931 94.7386 136.421C93.5196 137.072 92.6164 137.917 91.6689 138.905C90.785 139.821 89.8959 140.704 88.9253 141.528C87.221 143.001 85.6505 144.615 84.0613 146.209C83.508 146.764 82.9532 147.318 82.3983 147.871C80.0537 150.214 80.0537 150.214 77.8406 152.68C77.08 153.569 76.2709 154.414 75.4687 155.265C74.3875 156.413 73.32 157.57 72.2737 158.75C70.7943 160.399 69.2376 161.965 67.6691 163.527C67.181 164.014 66.6945 164.502 66.2081 164.99C64.5991 166.6 62.9755 168.165 61.2381 169.637C60.9096 169.927 60.5817 170.218 60.2544 170.509C57.8586 172.623 55.3811 174.596 52.8237 176.51C52.3271 176.887 51.8344 177.269 51.3441 177.654C48.9369 179.543 46.4378 181.261 43.8845 182.945C43.4686 183.221 43.0527 183.496 42.6368 183.771C41.6345 184.434 40.6307 185.095 39.6262 185.754C39.146 186.069 38.6665 186.386 38.1871 186.703C33.6487 189.698 29.7151 191.634 24.1533 190.646C20.2011 189.724 16.8654 187.598 13.8264 184.968C13.6539 184.82 13.4815 184.671 13.3039 184.518C6.40334 178.492 0.809602 169.9 0.158838 160.542C-0.187275 154.019 2.13673 148.887 6.4449 144.086C6.67765 143.819 6.91041 143.553 7.15022 143.278C12.5469 137.219 18.6776 132.48 26.0342 129.039C26.343 128.894 26.343 128.894 26.6581 128.746C36.3982 124.226 46.827 121.63 57.2313 119.165C57.4295 119.118 57.6277 119.071 57.832 119.022C59.8347 118.548 61.8377 118.074 63.8426 117.609C69.0696 116.412 69.0696 116.412 74.1785 114.799C74.8654 114.56 74.8654 114.56 75.4332 114.56C72.9017 109.355 58.7631 106.161 53.3672 104.286C47.6503 102.322 41.8745 100.524 36.1163 98.6847C15.1874 92.0001 15.1874 92.0001 10.7034 87.3057C10.5065 87.111 10.3097 86.9163 10.1068 86.7157C5.52644 81.9408 3.81664 75.3029 3.60587 68.852C3.59814 68.6181 3.59041 68.3841 3.58244 68.1431C3.55997 67.3621 3.54609 66.5813 3.53489 65.8001C3.52879 65.555 3.52268 65.31 3.51639 65.0575C3.49827 61.4776 4.82335 58.8807 7.24337 56.3004C7.63674 55.9035 8.03312 55.5095 8.43221 55.1182C8.64406 54.9091 8.85591 54.6999 9.07418 54.4844C10.9282 52.6799 12.8612 51.0539 14.962 49.5467C15.1309 49.4235 15.2998 49.3003 15.4738 49.1733C21.748 44.6343 29.2625 42.2496 37.0276 43.1378C43.9269 44.4289 49.5803 49.0361 54.9922 53.2374C55.1667 53.3724 55.3412 53.5075 55.521 53.6466C58.5408 55.9885 61.4982 58.4027 64.4083 60.8796C65.3685 61.6954 66.3412 62.4922 67.3243 63.2804C68.7478 64.4376 70.0903 65.6691 71.4241 66.9272C72.2678 67.7225 73.1209 68.5017 73.996 69.2624C75.1434 70.2603 76.2592 71.2885 77.3673 72.3298C77.563 72.5133 77.7587 72.6967 77.9603 72.8857C79.4079 74.2484 80.8194 75.6415 82.2081 77.0641C82.8199 77.6937 82.8199 77.6937 83.6664 78.2208C83.6664 78.4082 83.6664 78.5956 83.6664 78.7886C83.9174 78.9011 83.9174 78.9011 84.1734 79.0158C84.826 79.3694 85.2532 79.7384 85.7746 80.2636C85.9541 80.4436 86.1336 80.6237 86.3186 80.8092C86.5032 80.9973 86.6878 81.1854 86.8781 81.3792C87.0594 81.5608 87.2407 81.7423 87.4276 81.9293C88.3163 82.8261 89.175 83.7363 89.9965 84.6951C91.3043 86.2086 92.7331 87.602 94.1531 89.0091C94.4313 89.2859 94.7095 89.5628 94.9876 89.8398C95.661 90.5099 96.3351 91.1793 97.0098 91.8481C97.1285 87.8043 96.0748 83.9662 95.0281 80.0839C94.9434 79.7698 94.8587 79.4557 94.7715 79.1321C93.7323 75.3239 92.587 71.5473 91.4484 67.7679C78.6068 25.1352 78.6068 25.1352 84.2342 14.3427C88.2184 7.31239 97.3374 3.67225 104.753 1.58998C105.707 1.33544 106.662 1.09262 107.621 0.857355C107.916 0.784779 108.211 0.712203 108.515 0.637428C114.741 -0.804355 121.492 2.27049 126.619 5.75994ZM100.347 106.766C98.0085 110.037 97.3736 113.97 97.9835 117.902C98.7908 121.066 101.109 123.748 103.863 125.437C104.41 125.721 104.957 125.969 105.527 126.2C105.913 126.367 105.913 126.367 106.308 126.537C109.973 127.454 113.352 127.059 116.669 125.26C119.388 123.594 121.535 121.009 122.438 117.903C123.074 113.838 122.612 110.226 120.293 106.784C118.322 104.228 115.537 102.381 112.341 101.785C107.469 101.353 103.487 103.036 100.347 106.766Z" fill="#9D4EDD"/>
</svg>
