<svg width="222" height="235" viewBox="0 0 222 235" fill="none" xmlns="http://www.w3.org/2000/svg">
<path d="M126.728 5.52947C130.676 8.3756 133.08 12.0736 133.911 16.8941C134.13 18.618 134.124 20.3441 134.115 22.0793C134.115 22.2804 134.114 22.4815 134.114 22.6887C134.08 31.6887 132.872 40.6429 131.168 49.467C131.125 49.6852 131.083 49.9034 131.04 50.1282C130.068 55.1279 128.865 60.0647 127.629 65.0046C127.126 67.0176 126.625 69.0311 126.128 71.0458C126.075 71.2602 126.023 71.4747 125.968 71.6956C123.968 79.2283 123.968 79.2283 123.211 86.9333C123.212 87.2489 123.212 87.2489 123.213 87.571C123.216 87.7821 123.218 87.9933 123.22 88.2108C123.222 88.5408 123.222 88.5408 123.224 88.8774C123.228 89.4123 123.233 89.9472 123.238 90.4821C126.286 90.0351 128.604 87.5442 130.742 85.5017C131.233 85.0453 131.739 84.6085 132.247 84.1713C133.387 83.1758 134.468 82.133 135.536 81.0612C135.723 80.874 135.911 80.6869 136.104 80.494C136.497 80.1015 136.889 79.7085 137.281 79.3153C137.875 78.7193 138.471 78.1249 139.067 77.5307C139.452 77.1461 139.836 76.7615 140.22 76.3768C140.483 76.1149 140.483 76.1149 140.751 75.8478C141.609 74.9853 142.435 74.1087 143.23 73.1873C144.319 71.9287 145.481 70.7534 146.659 69.5786C146.884 69.3534 147.109 69.1282 147.341 68.8961C147.814 68.4231 148.287 67.9505 148.76 67.4783C149.479 66.7605 150.197 66.0412 150.915 65.3217C151.377 64.8598 151.839 64.3979 152.302 63.9361C152.513 63.7237 152.725 63.5113 152.944 63.2925C154.098 62.1432 155.276 61.041 156.515 59.9836C157.038 59.5231 157.528 59.0407 158.016 58.543C158.853 57.6935 159.728 56.9097 160.631 56.1321C161.263 55.5782 161.88 55.011 162.496 54.4396C163.942 53.0986 165.415 51.81 166.954 50.5749C167.587 50.0641 168.214 49.5481 168.837 49.0245C174.586 44.221 182.028 38.496 189.955 39.0957C193.536 39.6537 196.317 40.9876 199.04 43.3542C199.346 43.6194 199.346 43.6194 199.658 43.8899C201.521 45.6276 202.868 47.6624 204.266 49.7725C205.11 51.041 205.971 52.2982 206.83 53.557C207.01 53.8219 207.19 54.0868 207.376 54.3598C208.515 56.0314 209.67 57.6911 210.84 59.3415C210.979 59.5393 211.119 59.7371 211.263 59.9408C211.821 60.7313 212.38 61.5192 212.953 62.2992C214.781 64.8595 214.962 67.6113 214.523 70.6799C213.456 76.2363 211.006 81.3987 207.273 85.6557C207.092 85.8812 206.91 86.1066 206.723 86.3389C195.653 99.5899 172.753 104.244 157.112 109.35C156.419 109.577 155.726 109.803 155.033 110.03C152.995 110.696 150.956 111.361 148.916 112.02C148.073 112.293 147.23 112.567 146.388 112.842C145.993 112.97 145.598 113.098 145.202 113.225C144.661 113.398 144.12 113.575 143.58 113.752C143.276 113.85 142.971 113.949 142.657 114.05C141.933 114.26 141.933 114.26 141.692 114.898C142.041 115.01 142.391 115.122 142.751 115.237C144.442 115.801 146.088 116.471 147.743 117.133C160.841 122.312 174.224 126.647 187.819 130.318C211.226 136.655 211.226 136.655 217.036 146.608C220.574 152.796 222.823 159.199 220.901 166.284C217.847 176.202 210.732 185.914 201.595 190.984C196.733 193.439 191.819 194.38 186.549 192.687C180.656 190.568 174.793 187.589 169.702 183.94C169.222 183.596 168.737 183.26 168.25 182.926C164.817 180.544 161.568 177.906 158.49 175.081C157.897 174.538 157.294 174.012 156.686 173.488C155.786 172.706 154.948 171.881 154.114 171.031C153.629 170.556 153.126 170.125 152.604 169.691C151.246 168.523 150.053 167.203 148.843 165.885C147.864 164.82 146.868 163.782 145.836 162.768C144.977 161.899 144.19 160.967 143.395 160.038C143.144 159.745 142.893 159.453 142.642 159.16C142.214 158.661 141.787 158.161 141.359 157.662C140.287 156.409 139.207 155.162 138.125 153.917C136.02 151.491 133.929 149.055 131.915 146.553C128.329 141.75 128.329 141.75 123.522 138.746C123.866 141.556 124.404 144.256 125.119 146.996C125.172 147.202 125.225 147.407 125.28 147.619C126.356 151.774 127.594 155.879 128.845 159.985C142.731 205.562 142.731 205.562 135.535 219.835C130.666 228.303 118.9 231.212 110.16 233.635C102.822 235.556 94.9798 234.097 88.4435 230.317C82.1483 226.329 78.6649 220.302 76.9732 213.156C72.7541 193.596 81.9811 172.676 88.7604 154.705C90.0091 151.393 91.2373 148.074 92.4215 144.738C92.5815 144.287 92.7423 143.837 92.9039 143.388C93.7547 141.018 94.5203 138.701 94.848 136.19C93.629 136.841 92.7258 137.686 91.7783 138.675C90.8944 139.59 90.0053 140.473 89.0346 141.297C87.3304 142.77 85.7599 144.385 84.1706 145.979C83.6174 146.534 83.0626 147.087 82.5076 147.64C80.1631 149.983 80.1631 149.983 77.95 152.45C77.1894 153.339 76.3803 154.183 75.5781 155.034C74.4969 156.183 73.4294 157.34 72.3831 158.52C70.9037 160.168 69.347 161.734 67.7785 163.297C67.2904 163.783 66.8038 164.272 66.3174 164.76C64.7084 166.37 63.0848 167.934 61.3475 169.407C61.0189 169.697 60.691 169.987 60.3638 170.279C57.968 172.393 55.4905 174.365 52.9331 176.28C52.4365 176.657 51.9438 177.039 51.4534 177.424C49.0463 179.312 46.5471 181.03 43.9939 182.715C43.578 182.99 43.1621 183.266 42.7462 183.541C41.7439 184.204 40.7401 184.864 39.7356 185.523C39.2553 185.839 38.7758 186.156 38.2965 186.473C33.7581 189.468 29.8245 191.404 24.2627 190.416C20.3105 189.493 16.9748 187.368 13.9357 184.738C13.7633 184.589 13.5909 184.44 13.4133 184.287C6.51271 178.262 0.918977 169.669 0.268213 160.312C-0.0779002 153.788 2.2461 148.656 6.55427 143.856C6.78703 143.589 7.01978 143.322 7.25959 143.047C12.6563 136.988 18.7869 132.25 26.1435 128.809C26.4524 128.664 26.4524 128.664 26.7675 128.515C36.5076 123.996 46.9364 121.4 57.3407 118.934C57.5389 118.887 57.7371 118.84 57.9413 118.792C59.944 118.317 61.947 117.844 63.952 117.378C69.179 116.181 69.179 116.181 74.2878 114.569C74.9748 114.33 74.9748 114.33 75.5426 114.33C73.011 109.124 58.8725 105.93 53.4766 104.055C47.7597 102.091 41.9838 100.293 36.2257 98.4542C15.2968 91.7696 15.2968 91.7696 10.8128 87.0752C10.6159 86.8805 10.419 86.6858 10.2162 86.4853C5.63581 81.7104 3.92602 75.0724 3.71524 68.6216C3.70751 68.3876 3.69978 68.1537 3.69182 67.9126C3.66934 67.1316 3.65547 66.3509 3.64427 65.5696C3.63816 65.3245 3.63205 65.0795 3.62576 64.827C3.60764 61.2471 4.93272 58.6503 7.35275 56.07C7.74611 55.673 8.1425 55.279 8.54159 54.8878C8.75344 54.6786 8.96529 54.4694 9.18356 54.2539C11.0376 52.4494 12.9706 50.8234 15.0713 49.3162C15.2402 49.193 15.4091 49.0698 15.5831 48.9429C21.8574 44.4039 29.3719 42.0192 37.137 42.9073C44.0363 44.1984 49.6897 48.8056 55.1016 53.0069C55.2761 53.142 55.4506 53.277 55.6303 53.4161C58.6502 55.758 61.6076 58.1722 64.5177 60.6491C65.4778 61.4649 66.4505 62.2618 67.4336 63.05C68.8572 64.2071 70.1997 65.4386 71.5335 66.6968C72.3772 67.492 73.2302 68.2712 74.1053 69.0319C75.2528 70.0299 76.3686 71.058 77.4767 72.0994C77.6724 72.2828 77.868 72.4662 78.0697 72.6552C79.5173 74.018 80.9288 75.411 82.3175 76.8337C82.9292 77.4632 82.9292 77.4632 83.7758 77.9904C83.7758 78.1777 83.7758 78.3651 83.7758 78.5582C84.0268 78.6706 84.0268 78.6706 84.2828 78.7854C84.9354 79.139 85.3626 79.508 85.884 80.0331C86.0635 80.2132 86.243 80.3932 86.4279 80.5787C86.6126 80.7669 86.7972 80.955 86.9874 81.1488C87.1688 81.3303 87.3501 81.5118 87.5369 81.6988C88.4256 82.5957 89.2844 83.5058 90.1059 84.4647C91.4137 85.9781 92.8425 87.3715 94.2624 88.7787C94.5407 89.0555 94.8188 89.3323 95.0969 89.6093C95.7704 90.2794 96.4445 90.9489 97.1192 91.6177C97.2379 87.5738 96.1841 83.7358 95.1374 79.8535C95.0528 79.5394 94.9681 79.2253 94.8808 78.9017C93.8416 75.0934 92.6964 71.3168 91.5578 67.5374C78.7162 24.9047 78.7162 24.9047 84.3436 14.1123C88.3278 7.08193 97.4468 3.44178 104.862 1.35952C105.816 1.10497 106.772 0.862154 107.73 0.626887C108.025 0.554311 108.321 0.481735 108.625 0.406959C114.85 -1.03482 121.602 2.04002 126.728 5.52947ZM100.456 106.536C98.1179 109.806 97.483 113.74 98.0929 117.671C98.9002 120.836 101.218 123.518 103.973 125.207C104.519 125.491 105.066 125.738 105.636 125.97C106.023 126.137 106.023 126.137 106.417 126.307C110.082 127.223 113.462 126.828 116.778 125.029C119.497 123.364 121.645 120.778 122.547 117.672C123.183 113.607 122.721 109.995 120.403 106.554C118.432 103.997 115.646 102.15 112.45 101.554C107.578 101.122 103.597 102.805 100.456 106.536Z" fill="white"/>
</svg>
